<svg width="34" height="34" viewBox="0 0 34 34" fill="none" xmlns="http://www.w3.org/2000/svg">
<rect width="34" height="34" rx="6" fill="#F7685B"/>
<path fill-rule="evenodd" clip-rule="evenodd" d="M19.3356 7.97879H23.4068C23.7344 7.97879 24 8.24746 24 8.57887V10.4639H10V8.57882C10 8.24741 10.2656 7.97874 10.5932 7.97874H14.6645V7.20024C14.6645 7.08968 14.7531 7 14.8624 7H19.1376C19.247 7 19.3356 7.08968 19.3356 7.20024V7.97879ZM12.587 26C12.0804 26 11.6638 25.5958 11.6426 25.0837L11.0123 11.6265H22.9866L22.3564 25.0837C22.3352 25.5958 21.9186 26 21.4119 26H12.587ZM19.3798 14.5807C19.1677 14.5807 18.9958 14.7546 18.9958 14.9691V22.6575C18.9958 22.872 19.1678 23.0458 19.3798 23.0458H19.9939C20.206 23.0458 20.3778 22.872 20.3778 22.6575V14.9691C20.3778 14.7546 20.2058 14.5807 19.9939 14.5807H19.3798ZM16.6924 14.5807C16.4804 14.5807 16.3085 14.7546 16.3085 14.9691V22.6575C16.3085 22.872 16.4804 23.0458 16.6924 23.0458H17.3065C17.5186 23.0458 17.6905 22.872 17.6905 22.6575V14.9691C17.6905 14.7546 17.5185 14.5807 17.3065 14.5807H16.6924ZM14.005 14.5807C13.793 14.5807 13.6211 14.7546 13.6211 14.9691V22.6575C13.6211 22.872 13.7931 23.0458 14.005 23.0458H14.6192C14.8312 23.0458 15.0031 22.872 15.0031 22.6575V14.9691C15.0031 14.7546 14.8312 14.5807 14.6192 14.5807H14.005Z" fill="white"/>
</svg>
